# xmcd
#
# Track frame offsets: 
#        150
#        17912
#        34182
#        36027
#        44018
#        61336
#        62402
#
# Disc length: 1108 seconds
#
# Revision: 0
# Processed by: cddbd v1.5.2PL0 Copyright (c) Steve Scherf et al.
# Submitted via: ExactAudioCopy v0.95b4
#
DISCID=59045207
DTITLE=Swank - The Hollow Tree EP
DYEAR=2006
DGENRE=
TTITLE0=Goodbye Grandma
TTITLE1=Hollow Tree
TTITLE2=Hey Jeb (Intro)
TTITLE3=Hey Jeb
TTITLE4=Eye of Sorrow
TTITLE5=Donkey Cart (Intro)
TTITLE6=Donkey Cart
EXTD=www.iwantswank.com\nwww.myspace.com/iwantswank
EXTT0=
EXTT1=
EXTT2=
EXTT3=
EXTT4=
EXTT5=
EXTT6=
PLAYORDER=
